<svg width="100" height="100" viewBox="0 0 100 100" fill="none" xmlns="http://www.w3.org/2000/svg">
<g clip-path="url(#clip0)">
<path d="M26.5625 55.4688C26.5625 60.1043 27.9371 64.6357 30.5124 68.4899C33.0878 72.3442 36.7482 75.3483 41.0309 77.1222C45.3135 78.8961 50.026 79.3603 54.5724 78.4559C59.1189 77.5516 63.295 75.3194 66.5728 72.0416C69.8506 68.7638 72.0828 64.5876 72.9872 60.0412C73.8915 55.4947 73.4274 50.7823 71.6534 46.4996C69.8795 42.217 66.8755 38.5565 63.0212 35.9812C59.1669 33.4058 54.6355 32.0312 50 32.0312C43.7878 32.0436 37.8336 34.5169 33.4409 38.9096C29.0482 43.3023 26.5749 49.2565 26.5625 55.4688V55.4688ZM71.875 55.4688C71.875 59.7952 70.5921 64.0245 68.1884 67.6219C65.7847 71.2192 62.3683 74.023 58.3712 75.6786C54.3741 77.3343 49.9757 77.7675 45.7324 76.9234C41.4891 76.0794 37.5913 73.996 34.532 70.9367C31.4728 67.8774 29.3894 63.9797 28.5453 59.7364C27.7013 55.493 28.1345 51.0947 29.7901 47.0975C31.4458 43.1004 34.2496 39.684 37.8469 37.2804C41.4442 34.8767 45.6735 33.5938 50 33.5938C55.8016 33.5938 61.3656 35.8984 65.468 40.0008C69.5703 44.1031 71.875 49.6671 71.875 55.4688Z" fill="#47566A"/>
<path d="M50.7812 47.6562C50.7812 47.449 50.6989 47.2503 50.5524 47.1038C50.4059 46.9573 50.2072 46.875 50 46.875H48.4375C48.2303 46.875 48.0316 46.9573 47.8851 47.1038C47.7386 47.2503 47.6562 47.449 47.6562 47.6562C47.6562 47.8635 47.7386 48.0622 47.8851 48.2087C48.0316 48.3552 48.2303 48.4375 48.4375 48.4375H49.2188V65.625H47.6562C47.449 65.625 47.2503 65.7073 47.1038 65.8538C46.9573 66.0003 46.875 66.199 46.875 66.4062C46.875 66.6135 46.9573 66.8122 47.1038 66.9587C47.2503 67.1052 47.449 67.1875 47.6562 67.1875H52.3438C52.551 67.1875 52.7497 67.1052 52.8962 66.9587C53.0427 66.8122 53.125 66.6135 53.125 66.4062C53.125 66.199 53.0427 66.0003 52.8962 65.8538C52.7497 65.7073 52.551 65.625 52.3438 65.625H50.7812V47.6562Z" fill="#47566A"/>
<path d="M48.4375 44.1405C48.483 44.4185 48.6259 44.6712 48.8406 44.8535C49.0552 45.0359 49.3277 45.136 49.6094 45.136C49.891 45.136 50.1635 45.0359 50.3782 44.8535C50.5929 44.6712 50.7357 44.4185 50.7812 44.1405C50.7357 43.8626 50.5929 43.6098 50.3782 43.4275C50.1635 43.2451 49.891 43.145 49.6094 43.145C49.3277 43.145 49.0552 43.2451 48.8406 43.4275C48.6259 43.6098 48.483 43.8626 48.4375 44.1405V44.1405ZM50 44.1405C49.9758 44.2254 49.9245 44.3001 49.854 44.3533C49.7835 44.4064 49.6977 44.4352 49.6094 44.4352C49.5211 44.4352 49.4352 44.4064 49.3647 44.3533C49.2942 44.3001 49.243 44.2254 49.2188 44.1405C49.243 44.0556 49.2942 43.9809 49.3647 43.9278C49.4352 43.8746 49.5211 43.8459 49.6094 43.8459C49.6977 43.8459 49.7835 43.8746 49.854 43.9278C49.9245 43.9809 49.9758 44.0556 50 44.1405V44.1405Z" fill="#47566A"/>
<path d="M99.5704 49.9296C100.195 49.6249 100.016 49.9687 100.016 38.2812C100.016 37.6796 103.141 40.2499 50.4844 0.148383C49.7032 -0.429742 52.5626 -2.19537 0.296943 37.6484C-0.148369 37.9843 6.8358e-05 37.4374 6.8358e-05 49.2187C-0.00634572 49.3699 0.0313115 49.5198 0.108462 49.65C0.185613 49.7802 0.298935 49.8852 0.434652 49.9523C0.570369 50.0193 0.722636 50.0455 0.872943 50.0276C1.02325 50.0097 1.16512 49.9485 1.28132 49.8515L10.9376 42.4921V89.0624H0.781318C0.574118 89.0624 0.375404 89.1448 0.228891 89.2913C0.0823784 89.4378 6.8358e-05 89.6365 6.8358e-05 89.8437V99.2187C6.8358e-05 99.4259 0.0823784 99.6246 0.228891 99.7711C0.375404 99.9176 0.574118 99.9999 0.781318 99.9999H99.2188C99.426 99.9999 99.6247 99.9176 99.7712 99.7711C99.9178 99.6246 100 99.4259 100 99.2187V89.8437C100 89.6365 99.9178 89.4378 99.7712 89.2913C99.6247 89.1448 99.426 89.0624 99.2188 89.0624H89.0626V42.4921C99.3985 50.3593 98.9376 50.2499 99.5704 49.9296ZM1.56257 38.6796L50.0001 1.7812L98.4376 38.6796V47.6093L50.4844 11.0859C50.3465 10.9769 50.1759 10.9176 50.0001 10.9176C49.8243 10.9176 49.6536 10.9769 49.5157 11.0859L1.56257 47.6093V38.6796ZM98.4376 98.4374H1.56257V90.6249H98.4376V98.4374ZM87.5001 89.0624H12.5001V41.2812L50.0001 12.7187L87.5001 41.2812V89.0624Z" fill="#47566A"/>
</g>
<defs>
<clipPath id="clip0">
<rect width="100" height="100" fill="white"/>
</clipPath>
</defs>
</svg>
