<svg width="100" height="100" viewBox="0 0 100 100" fill="none" xmlns="http://www.w3.org/2000/svg">
<g clip-path="url(#clip0)">
<path d="M20.7031 31.25H12.8906C12.6834 31.25 12.4847 31.3323 12.3382 31.4789C12.1917 31.6254 12.1094 31.8241 12.1094 32.0313V47.6563C12.1094 47.8635 12.1917 48.0622 12.3382 48.2087C12.4847 48.3552 12.6834 48.4375 12.8906 48.4375C13.0978 48.4375 13.2965 48.3552 13.4431 48.2087C13.5896 48.0622 13.6719 47.8635 13.6719 47.6563V40.625H18.75C18.9572 40.625 19.1559 40.5427 19.3024 40.3962C19.4489 40.2497 19.5312 40.051 19.5312 39.8438C19.5312 39.6366 19.4489 39.4379 19.3024 39.2914C19.1559 39.1448 18.9572 39.0625 18.75 39.0625H13.6875V32.8125H20.7187C20.8213 32.8115 20.9227 32.7903 21.0171 32.7501C21.1115 32.7099 21.1971 32.6515 21.2689 32.5782C21.3407 32.5049 21.3974 32.4182 21.4357 32.323C21.474 32.2279 21.4932 32.1261 21.4922 32.0235C21.4912 31.9209 21.4699 31.8195 21.4297 31.7251C21.3895 31.6307 21.3311 31.5452 21.2578 31.4733C21.1846 31.4015 21.0979 31.3448 21.0027 31.3065C20.9075 31.2682 20.8057 31.249 20.7031 31.25V31.25Z" fill="#47566A"/>
<path d="M30.0625 31.8047C30.0625 31.5975 29.9802 31.3988 29.8336 31.2523C29.6871 31.1057 29.4884 31.0234 29.2812 31.0234C29.074 31.0234 28.8753 31.1057 28.7288 31.2523C28.5823 31.3988 28.5 31.5975 28.5 31.8047L23.8125 47.4297C23.7524 47.6369 23.7771 47.8595 23.8811 48.0485C23.9851 48.2375 24.16 48.3774 24.3672 48.4375C24.5744 48.4976 24.7969 48.4729 24.9859 48.3689C25.1749 48.2649 25.3149 48.09 25.375 47.8828L26.7031 43.4453H31.8906L33.2187 47.8828C33.2788 48.09 33.4187 48.2649 33.6077 48.3689C33.7967 48.4729 34.0193 48.4976 34.2265 48.4375C34.4337 48.3774 34.6086 48.2375 34.7126 48.0485C34.8166 47.8595 34.8413 47.6369 34.7812 47.4297L30.0625 31.8047ZM27.1875 41.8516L29.2968 34.8203L31.4062 41.8516H27.1875Z" fill="#47566A"/>
<path d="M47.3906 47.375L48.2734 48.2266C48.4247 48.3737 48.6282 48.4547 48.8392 48.4517C49.0502 48.4488 49.2513 48.3622 49.3984 48.2109C49.5455 48.0597 49.6266 47.8562 49.6236 47.6452C49.6207 47.4342 49.5341 47.2331 49.3828 47.0859L48.5234 46.25C50 44.2969 49.625 42.7578 49.625 36.7188C49.625 35.2683 49.0488 33.8773 48.0232 32.8518C46.9976 31.8262 45.6067 31.25 44.1562 31.25C42.7058 31.25 41.3148 31.8262 40.2893 32.8518C39.2637 33.8773 38.6875 35.2683 38.6875 36.7188V42.9688C38.6881 43.9791 38.9687 44.9695 39.498 45.8302C40.0273 46.6908 40.7846 47.3879 41.6861 47.8443C42.5875 48.3007 43.5977 48.4984 44.6046 48.4156C45.6116 48.3327 46.5759 47.9726 47.3906 47.375V47.375ZM40.25 36.7188C40.25 35.6827 40.6616 34.6892 41.3941 33.9566C42.1267 33.2241 43.1202 32.8125 44.1562 32.8125C45.1923 32.8125 46.1858 33.2241 46.9184 33.9566C47.6509 34.6892 48.0625 35.6827 48.0625 36.7188C48.0625 43.2891 48.2734 43.8359 47.4062 45.1328L44.9297 42.7266C44.7784 42.5795 44.5749 42.4985 44.364 42.5014C44.153 42.5043 43.9518 42.5909 43.8047 42.7422C43.6576 42.8934 43.5766 43.0969 43.5795 43.3079C43.5824 43.5189 43.6691 43.7201 43.8203 43.8672L46.2578 46.2109C45.671 46.5855 44.9947 46.7965 44.299 46.822C43.6033 46.8475 42.9134 46.6866 42.3008 46.356C41.6881 46.0254 41.1749 45.537 40.8144 44.9415C40.4538 44.3459 40.259 43.6649 40.25 42.9688V36.7188Z" fill="#47566A"/>
<path d="M81.0938 39.1797C80.0702 38.9707 79.0128 38.9925 77.9987 39.2434C76.9845 39.4944 76.039 39.9681 75.2309 40.6303C74.4228 41.2925 73.7725 42.1264 73.3271 43.0715C72.8818 44.0166 72.6526 45.049 72.6563 46.0937C72.6563 46.3009 72.7386 46.4996 72.8851 46.6462C73.0316 46.7927 73.2303 46.875 73.4375 46.875C73.6447 46.875 73.8435 46.7927 73.99 46.6462C74.1365 46.4996 74.2188 46.3009 74.2188 46.0937C74.2212 45.2848 74.403 44.4865 74.7511 43.7563C75.0992 43.0262 75.605 42.3823 76.2319 41.8712C76.8589 41.36 77.5914 40.9944 78.3768 40.8005C79.1621 40.6066 79.9807 40.5893 80.7735 40.75C85.9375 41.7422 86.7188 48.8047 82.0313 51.0312C81.0968 51.4745 80.3072 52.1737 79.7541 53.0476C79.2009 53.9216 78.907 54.9344 78.9063 55.9687V58.5937C78.9063 58.8009 78.9886 58.9996 79.1351 59.1462C79.2816 59.2927 79.4803 59.375 79.6875 59.375C79.8947 59.375 80.0935 59.2927 80.24 59.1462C80.3865 58.9996 80.4688 58.8009 80.4688 58.5937V55.9687C80.4724 55.2368 80.6816 54.5206 81.0725 53.9018C81.4634 53.2829 82.0203 52.7864 82.6797 52.4687C88.7969 49.5859 87.7266 40.4687 81.0938 39.1797Z" fill="#47566A"/>
<path d="M79.6875 60.9375C79.3785 60.9375 79.0764 61.0291 78.8194 61.2008C78.5625 61.3725 78.3622 61.6165 78.2439 61.9021C78.1257 62.1876 78.0947 62.5017 78.155 62.8048C78.2153 63.1079 78.3641 63.3863 78.5826 63.6049C78.8012 63.8234 79.0796 63.9722 79.3827 64.0325C79.6858 64.0928 79.9999 64.0618 80.2854 63.9436C80.571 63.8253 80.815 63.625 80.9867 63.3681C81.1584 63.1111 81.25 62.809 81.25 62.5C81.25 62.0856 81.0854 61.6882 80.7924 61.3951C80.4993 61.1021 80.1019 60.9375 79.6875 60.9375ZM79.6875 62.5C78.6328 62.5 78.6484 62.5 79.6875 62.5V62.5Z" fill="#47566A"/>
<path d="M92.9688 24.2187H61.7188V19.5312C61.7187 17.6664 60.978 15.878 59.6593 14.5594C58.3407 13.2408 56.5523 12.5 54.6875 12.5H7.03125C5.16645 12.5 3.37802 13.2408 2.05941 14.5594C0.74079 15.878 0 17.6664 0 19.5312L0 60.1562C0 62.021 0.74079 63.8095 2.05941 65.1281C3.37802 66.4467 5.16645 67.1875 7.03125 67.1875H13.2812C13.2812 75.4609 13.125 75.3594 13.6875 75.6797C14.25 76 13.3594 76.3594 28.3672 67.1875H38.2812V71.875C38.2812 73.7398 39.022 75.5282 40.3407 76.8468C41.6593 78.1655 43.4477 78.9062 45.3125 78.9062H71.6484C86.6641 88.0781 85.75 87.7266 86.3281 87.3984C86.9063 87.0703 86.7188 87.5 86.7188 78.9062H92.9688C94.8336 78.9062 96.622 78.1655 97.9406 76.8468C99.2592 75.5282 100 73.7398 100 71.875V31.25C100 29.3852 99.2592 27.5968 97.9406 26.2782C96.622 24.9595 94.8336 24.2187 92.9688 24.2187V24.2187ZM28.125 65.625C27.7969 65.625 28.8359 65.0547 14.8438 73.5937V66.4062C14.8438 66.199 14.7614 66.0003 14.6149 65.8538C14.4684 65.7073 14.2697 65.625 14.0625 65.625H7.03125C5.58085 65.625 4.18985 65.0488 3.16426 64.0232C2.13867 62.9976 1.5625 61.6066 1.5625 60.1562V19.5312C1.5625 18.0808 2.13867 16.6898 3.16426 15.6643C4.18985 14.6387 5.58085 14.0625 7.03125 14.0625H54.6875C56.1379 14.0625 57.5289 14.6387 58.5545 15.6643C59.5801 16.6898 60.1562 18.0808 60.1562 19.5312V60.1562C60.1563 61.6066 59.5801 62.9976 58.5545 64.0232C57.5289 65.0488 56.1379 65.625 54.6875 65.625H28.125ZM98.4375 71.875C98.4375 73.3254 97.8613 74.7164 96.8357 75.742C95.8101 76.7676 94.4192 77.3437 92.9688 77.3437H85.9375C85.7303 77.3437 85.5316 77.4261 85.3851 77.5726C85.2386 77.7191 85.1562 77.9178 85.1562 78.125V85.2969C71.0938 76.7031 72.1953 77.3437 71.875 77.3437H45.3125C43.8621 77.3437 42.4711 76.7676 41.4455 75.742C40.4199 74.7164 39.8438 73.3254 39.8438 71.875V67.1875H54.6875C56.5523 67.1875 58.3407 66.4467 59.6593 65.1281C60.978 63.8095 61.7188 62.021 61.7188 60.1562V25.7812H92.9688C94.4192 25.7812 95.8101 26.3574 96.8357 27.383C97.8613 28.4086 98.4375 29.7996 98.4375 31.25V71.875Z" fill="#47566A"/>
</g>
<defs>
<clipPath id="clip0">
<rect width="100" height="100" fill="white"/>
</clipPath>
</defs>
</svg>
