<svg width="51" height="45" viewBox="0 0 51 45" fill="none" xmlns="http://www.w3.org/2000/svg">
<path d="M1.20874 15.2986H21.9989C24.8984 15.2986 27.5111 13.5479 28.6129 10.8659C29.7146 8.18388 29.0869 5.1015 27.0237 3.06403C24.9614 1.02568 21.8719 0.4353 19.2032 1.56989C16.5346 2.70359 14.8158 5.33764 14.8513 8.23715" stroke="#47566A" stroke-width="1.02534" stroke-miterlimit="10" stroke-linecap="round" stroke-linejoin="round"/>
<path d="M1.20874 30.0305H34.7039C37.639 30.0208 40.2819 31.8097 41.3614 34.5396C42.4419 37.2695 41.7388 40.383 39.5903 42.3841C37.4419 44.3842 34.2876 44.8654 31.6411 43.5941C28.9946 42.3228 27.3966 39.56 27.6159 36.6321" stroke="#47566A" stroke-width="1.02534" stroke-miterlimit="10" stroke-linecap="round" stroke-linejoin="round"/>
<path d="M1 22.3868H43.2186C46.0346 22.4161 48.6003 20.7746 49.7553 18.2071C50.9104 15.6388 50.4345 12.6301 48.5444 10.5429C46.6543 8.45571 43.7069 7.68599 41.0373 8.58176C38.3677 9.47665 36.4812 11.8683 36.2326 14.6729" stroke="#47566A" stroke-width="1.02534" stroke-miterlimit="10" stroke-linecap="round" stroke-linejoin="round"/>
</svg>
