<svg width="35" height="54" viewBox="0 0 35 54" fill="none" xmlns="http://www.w3.org/2000/svg">
<path d="M9.95755 15.4228L17.653 1L32.0101 27.9091C35.0362 33.0583 35.0731 39.4334 32.107 44.6176C29.1409 49.8011 23.6256 53 17.653 53C11.6803 53 6.16497 49.8011 3.19888 44.6176C0.232804 39.4334 0.269719 33.0583 3.29579 27.9091L6.87047 21.2093" stroke="#47566A" stroke-width="1.03" stroke-miterlimit="10" stroke-linecap="round" stroke-linejoin="round"/>
<path d="M8.78693 17.6172L7.99683 19.0979" stroke="#47566A" stroke-width="1.03" stroke-miterlimit="10" stroke-linecap="round" stroke-linejoin="round"/>
<path d="M12.4751 44.3289L22.3039 27.5563" stroke="#47566A" stroke-width="1.03" stroke-miterlimit="10" stroke-linecap="round" stroke-linejoin="round"/>
<path d="M15.0903 30.5927C15.0903 28.7494 13.5963 27.2554 11.7535 27.2554C9.91032 27.2554 8.41626 28.7494 8.41626 30.5927C8.41626 32.4354 9.91032 33.9294 11.7535 33.9294C13.5963 33.9294 15.0903 32.4354 15.0903 30.5927Z" stroke="#47566A" stroke-width="1.03" stroke-miterlimit="10" stroke-linecap="round" stroke-linejoin="round"/>
<path d="M26.5732 41.3834C26.5732 39.5407 25.0792 38.0466 23.2359 38.0466C21.3932 38.0466 19.8992 39.5407 19.8992 41.3834C19.8992 43.2266 21.3932 44.7207 23.2359 44.7207C25.0792 44.7207 26.5732 43.2266 26.5732 41.3834Z" stroke="#47566A" stroke-width="1.03" stroke-miterlimit="10" stroke-linecap="round" stroke-linejoin="round"/>
</svg>
