<svg width="100" height="100" viewBox="0 0 100 100" fill="none" xmlns="http://www.w3.org/2000/svg">
<g clip-path="url(#clip0)">
<path d="M88.2812 58.5937C88.4884 58.5937 88.6871 58.5114 88.8336 58.3649C88.9801 58.2184 89.0624 58.0197 89.0624 57.8125V42.1875C89.0624 41.9803 88.9801 41.7816 88.8336 41.635C88.6871 41.4885 88.4884 41.4062 88.2812 41.4062H67.1874V10.9375C67.1874 10.7303 67.1051 10.5316 66.9586 10.385C66.8121 10.2385 66.6134 10.1562 66.4062 10.1562H42.1874V0.781216C42.1958 0.650949 42.1714 0.520664 42.1164 0.402263C42.0614 0.283863 41.9777 0.18112 41.8728 0.103422C41.7679 0.0257242 41.6452 -0.0244528 41.5159 -0.042525C41.3867 -0.0605973 41.2549 -0.0459886 41.1327 -3.35579e-05L11.4452 10.1562C11.2879 10.2146 11.1536 10.3221 11.0621 10.4628C10.9707 10.6036 10.9269 10.77 10.9374 10.9375C10.9374 94.2031 10.6406 89.5312 11.4765 89.8437C43.2343 100.687 41.2031 100 41.4062 100C41.6134 100 41.8121 99.9177 41.9586 99.7711C42.1051 99.6246 42.1874 99.4259 42.1874 99.2187V89.8437H88.2812C88.4884 89.8437 88.6871 89.7614 88.8336 89.6149C88.9801 89.4684 89.0624 89.2697 89.0624 89.0625C89.0624 88.8553 88.9801 88.6566 88.8336 88.51C88.6871 88.3635 88.4884 88.2812 88.2812 88.2812H67.1874V58.5937H88.2812ZM87.4999 57.0312H57.0312C56.824 57.0312 56.6253 57.1135 56.4788 57.26C56.3322 57.4066 56.2499 57.6053 56.2499 57.8125V63.7031L42.5312 50L56.2499 36.2968V42.1875C56.2499 42.3947 56.3322 42.5934 56.4788 42.7399C56.6253 42.8864 56.824 42.9687 57.0312 42.9687H87.4999V57.0312ZM42.1874 16.4062H60.1562V41.4062H57.8124V34.375C57.8203 34.2141 57.7782 34.0547 57.692 33.9187C57.6058 33.7827 57.4796 33.6766 57.3308 33.615C57.182 33.5535 57.0178 33.5394 56.8607 33.5747C56.7035 33.6101 56.5612 33.6931 56.4531 33.8125L42.1874 48.0781V16.4062ZM65.6249 11.7187V41.4062H61.7187V15.625C61.7187 15.4178 61.6364 15.2191 61.4899 15.0725C61.3433 14.926 61.1446 14.8437 60.9374 14.8437H42.1874V11.7187H65.6249ZM40.6249 98.1015L12.4999 88.4922V11.5078L40.6249 1.8984V98.1015ZM42.1874 51.9218C57.7499 67.4765 56.5546 66.4062 57.0312 66.4062C57.2384 66.4062 57.4371 66.3239 57.5836 66.1774C57.7301 66.0309 57.8124 65.8322 57.8124 65.625V58.5937H60.1562V88.2812H42.1874V51.9218ZM65.6249 88.2812H61.7187V58.5937H65.6249V88.2812Z" fill="#47566A"/>
<path d="M34.375 47.6562V52.3438C34.375 52.551 34.4573 52.7497 34.6038 52.8962C34.7503 53.0427 34.949 53.125 35.1562 53.125C35.3635 53.125 35.5622 53.0427 35.7087 52.8962C35.8552 52.7497 35.9375 52.551 35.9375 52.3438V47.6562C35.9375 47.449 35.8552 47.2503 35.7087 47.1038C35.5622 46.9573 35.3635 46.875 35.1562 46.875C34.949 46.875 34.7503 46.9573 34.6038 47.1038C34.4573 47.2503 34.375 47.449 34.375 47.6562Z" fill="#47566A"/>
</g>
<defs>
<clipPath id="clip0">
<rect width="100" height="100" fill="white"/>
</clipPath>
</defs>
</svg>
