<svg width="25" height="22" viewBox="0 0 25 22" fill="none" xmlns="http://www.w3.org/2000/svg">
<path d="M24.5124 2.97246C24.7818 2.97212 25 2.75361 25 2.48418V0.488281C25 0.218604 24.7814 0 24.5117 0H18.8301C17.9597 0 17.2108 0.231543 16.6644 0.669629C16.2097 1.03423 15.6678 1.73335 15.6678 2.99355V4.38486H15.5457C15.276 4.38486 15.0574 4.60347 15.0574 4.87314V6.95518H14.1391V6.82197C14.1391 6.30923 13.7234 5.89356 13.2107 5.89356H11.8612C11.3485 5.89356 10.9328 6.30923 10.9328 6.82197V6.95513H9.66992V6.2877C9.66992 5.38193 8.93242 4.64502 8.02598 4.64502H6.80381C5.89731 4.64502 5.15981 5.38193 5.15981 6.2877V6.97612C2.27353 7.22256 0 9.6502 0 12.5993C0 15.5477 2.27139 17.975 5.15566 18.2234V20.3326H0.505029C0.244971 20.3326 0.0179199 20.5289 0.00107422 20.7883C-0.0173828 21.0727 0.207861 21.3092 0.488281 21.3092H5.64395H8.80244H24.495C24.755 21.3092 24.9821 21.1129 24.9989 20.8534C25.0174 20.569 24.7921 20.3326 24.5117 20.3326H9.29072V18.2448H10.9328V18.378C10.9328 18.8907 11.3485 19.3064 11.8612 19.3064H13.2107C13.7235 19.3064 14.1392 18.8907 14.1392 18.378V18.2448H20.9782C21.2479 18.2448 21.4665 18.0262 21.4665 17.7565V15.7298H24.5117C24.7814 15.7298 25 15.5112 25 15.2415V9.95835C25 9.68867 24.7814 9.47007 24.5117 9.47007H21.4665V7.44341C21.4665 7.17373 21.2479 6.95513 20.9782 6.95513H19.4347V4.8731C19.4347 4.60342 19.2161 4.38481 18.9464 4.38481H18.8243C18.8243 4.38481 18.8238 3.13345 18.825 3.10386C18.8276 3.04067 18.8752 2.98052 18.9385 2.98013C19.0646 2.97939 24.5124 2.97246 24.5124 2.97246V2.97246ZM6.13638 6.2877C6.13638 5.92041 6.43579 5.62158 6.80381 5.62158H8.02598C8.39399 5.62158 8.69336 5.92036 8.69336 6.2877V6.95513H6.13638V6.2877ZM8.31416 20.3326H6.13223V18.2448H8.31416V20.3326ZM5.64395 17.2682C3.07031 17.2682 0.976562 15.1737 0.976562 12.5993C0.976562 10.0255 3.07036 7.93169 5.64395 7.93169H5.6481H9.18164H10.9328V17.2682H5.64395ZM24.0234 10.4466V14.7532H21.4665V10.4466H24.0234ZM20.4899 15.2415V17.2682H14.1391V14.7903C14.1391 14.5207 13.9205 14.3021 13.6508 14.3021C13.3812 14.3021 13.1625 14.5207 13.1625 14.7903V18.3298H11.9094V17.7565V7.44341V6.87012H13.1625V10.4054C13.1625 10.675 13.3812 10.8937 13.6508 10.8937C13.9205 10.8937 14.1391 10.675 14.1391 10.4054V7.93169H20.4898V15.2415H20.4899ZM16.0339 6.95513V5.36138H16.1561H18.336H18.4581V6.95513H16.0339ZM18.1288 2.30835C17.8723 2.56963 17.8423 2.91777 17.8477 3.22485V4.38486H16.6443V2.99355C16.6443 1.32646 17.8329 0.976563 18.83 0.976563H24.0234V1.99653L19.064 2.00283C18.7682 2.00283 18.3946 2.0375 18.1288 2.30835V2.30835Z" fill="#47566A"/>
<path d="M9.20923 12.1111H7.9248C7.65513 12.1111 7.43652 12.3297 7.43652 12.5994C7.43652 12.869 7.65513 13.0876 7.9248 13.0876H9.20923C9.47891 13.0876 9.69751 12.869 9.69751 12.5994C9.69751 12.3297 9.47891 12.1111 9.20923 12.1111Z" fill="#47566A"/>
<path d="M9.20923 9.6709H7.9248C7.65513 9.6709 7.43652 9.88955 7.43652 10.1592C7.43652 10.4288 7.65513 10.6475 7.9248 10.6475H9.20923C9.47891 10.6475 9.69751 10.4288 9.69751 10.1592C9.69751 9.88955 9.47891 9.6709 9.20923 9.6709Z" fill="#47566A"/>
<path d="M9.20923 14.5527H7.9248C7.65513 14.5527 7.43652 14.7714 7.43652 15.041C7.43652 15.3106 7.65513 15.5293 7.9248 15.5293H9.20923C9.47891 15.5293 9.69751 15.3106 9.69751 15.041C9.69751 14.7714 9.47891 14.5527 9.20923 14.5527Z" fill="#47566A"/>
<path d="M13.6509 12.1096C13.3813 12.1096 13.1626 12.3283 13.1626 12.5979V12.5993C13.1626 12.8689 13.3813 13.0869 13.6509 13.0869C13.9205 13.0869 14.1392 12.8675 14.1392 12.5979C14.1392 12.3282 13.9206 12.1096 13.6509 12.1096Z" fill="#47566A"/>
</svg>
