<svg width="25" height="25" viewBox="0 0 25 25" fill="none" xmlns="http://www.w3.org/2000/svg">
<path d="M6.25 9.81958H0.894352C0.40272 9.81958 0.00523013 10.2171 0 10.7139V24.1031C0 24.5999 0.40272 24.9974 0.894352 24.9974H6.25C6.74686 24.9974 7.14435 24.5947 7.14435 24.1031V10.7139C7.14435 10.2171 6.74163 9.81958 6.25 9.81958Z" fill="#47566A"/>
<path d="M15.1777 0.00268555H9.82209C9.33045 0.00268555 8.92773 0.400175 8.92773 0.891807V24.1031C8.92773 24.6 9.33045 24.9975 9.82209 24.9975H15.1777C15.6746 24.9975 16.0721 24.5947 16.0721 24.1031V0.897037C16.0721 0.400175 15.6694 0.00268555 15.1777 0.00268555Z" fill="#47566A"/>
<path d="M24.1057 7.1416H18.7501C18.2532 7.1416 17.8557 7.53909 17.8557 8.03595V24.1029C17.8557 24.5998 18.2584 24.9973 18.7501 24.9973H24.1057C24.6026 24.9973 25.0001 24.5945 25.0001 24.1029V8.03595C25.0001 7.53909 24.5973 7.1416 24.1057 7.1416Z" fill="#47566A"/>
</svg>
