<svg width="27" height="53" viewBox="0 0 27 53" fill="none" xmlns="http://www.w3.org/2000/svg">
<path d="M17.6589 40.9968C17.6589 38.0512 15.2708 35.6633 12.3252 35.6633C9.37953 35.6633 6.9917 38.0512 6.9917 40.9968C6.9917 43.9427 9.37953 46.3306 12.3252 46.3306C15.2708 46.3306 17.6589 43.9427 17.6589 40.9968Z" stroke="#47566A" stroke-width="1.03" stroke-miterlimit="10" stroke-linejoin="round"/>
<path d="M19.8328 4.85938H25.8722" stroke="#47566A" stroke-width="1.03" stroke-miterlimit="10" stroke-linecap="round" stroke-linejoin="round"/>
<path d="M19.8328 15.5178H25.8719" stroke="#47566A" stroke-width="1.03" stroke-miterlimit="10" stroke-linecap="round" stroke-linejoin="round"/>
<path d="M19.8328 26.1763H25.8719" stroke="#47566A" stroke-width="1.03" stroke-miterlimit="10" stroke-linecap="round" stroke-linejoin="round"/>
<path d="M19.8328 10.1885H23.66" stroke="#47566A" stroke-width="1.03" stroke-miterlimit="10" stroke-linecap="round" stroke-linejoin="round"/>
<path d="M19.8328 20.8472H23.66" stroke="#47566A" stroke-width="1.03" stroke-miterlimit="10" stroke-linecap="round" stroke-linejoin="round"/>
<path d="M12.3252 35.6633V13.9945" stroke="#47566A" stroke-width="1.03" stroke-miterlimit="10" stroke-linecap="round" stroke-linejoin="round"/>
<path d="M12.3252 10.9453V7.89627" stroke="#47566A" stroke-width="1.03" stroke-miterlimit="10" stroke-linecap="round" stroke-linejoin="round"/>
<path d="M7.74745 28.3732V30.6393C2.84226 32.8074 0.130263 38.1191 1.25128 43.3638C2.37263 48.6087 7.01909 52.3474 12.382 52.3207C17.745 52.2935 22.3538 48.508 23.4223 43.2525C24.4904 37.9967 21.7255 32.7124 16.7986 30.5938V5.06353C16.5491 2.75199 14.598 0.999944 12.2729 0.999944C9.9481 0.999944 7.99701 2.75199 7.74745 5.06353V25.3041" stroke="#47566A" stroke-width="1.03" stroke-miterlimit="10" stroke-linejoin="round"/>
</svg>
