<svg width="100" height="100" viewBox="0 0 100 100" fill="none" xmlns="http://www.w3.org/2000/svg">
<g clip-path="url(#clip0)">
<path d="M98.8125 63.8906L90.3125 58.9766C91.6706 53.064 91.6706 46.9204 90.3125 41.0078L98.8125 36.0938C98.9048 36.0434 98.9859 35.975 99.0511 35.8925C99.1163 35.8101 99.1642 35.7153 99.1919 35.6139C99.2197 35.5125 99.2266 35.4066 99.2124 35.3025C99.1983 35.1983 99.1632 35.0981 99.1094 35.0078C86.539 13.2813 87.5 14.7188 87.0391 14.5938C86.5781 14.4688 87.039 14.3203 77.9297 19.5859C73.4656 15.4824 68.156 12.4076 62.375 10.5781V0.78125C62.375 0.57405 62.2927 0.375336 62.1462 0.228823C61.9996 0.08231 61.8009 0 61.5937 0L38.4219 0C38.2147 0 38.0159 0.08231 37.8694 0.228823C37.7229 0.375336 37.6406 0.57405 37.6406 0.78125V10.5781C31.8541 12.4056 26.539 15.4805 22.0703 19.5859L13.5625 14.6719C13.4727 14.6177 13.3729 14.5822 13.2691 14.5675C13.1652 14.5527 13.0595 14.559 12.9582 14.586C12.8569 14.613 12.762 14.6601 12.6792 14.7245C12.5965 14.7889 12.5276 14.8693 12.4766 14.9609C-0.0937623 36.7188 0.687488 35.1562 0.781238 35.625C0.874988 36.0937 0.53905 35.7578 9.66405 41.0234C8.29831 46.9352 8.29831 53.0805 9.66405 58.9922C0.492175 64.2891 0.937488 63.9141 0.781238 64.375C0.624988 64.8359 -0.164074 63.1484 12.5 85.0391C12.551 85.1307 12.6199 85.2111 12.7027 85.2755C12.7854 85.3399 12.8803 85.387 12.9816 85.414C13.083 85.441 13.1887 85.4473 13.2925 85.4325C13.3963 85.4178 13.4961 85.3823 13.5859 85.3281L22.0937 80.4141C26.5579 84.5176 31.8674 87.5924 37.6484 89.4219V99.2188C37.6484 99.426 37.7307 99.6247 37.8772 99.7712C38.0238 99.9177 38.2225 100 38.4297 100H61.5781C61.7853 100 61.984 99.9177 62.1305 99.7712C62.2771 99.6247 62.3594 99.426 62.3594 99.2188V89.4219C68.1404 87.5924 73.4499 84.5176 77.9141 80.4141C87.1172 85.7266 86.5703 85.5312 87.0234 85.4062C87.4765 85.2812 86.4531 86.8672 99.0937 64.9766C99.1482 64.8872 99.1841 64.7879 99.1995 64.6844C99.2148 64.5809 99.2092 64.4754 99.1829 64.3741C99.1567 64.2728 99.1104 64.1778 99.0468 64.0948C98.9831 64.0117 98.9035 63.9423 98.8125 63.8906ZM86.539 83.5469L78.2109 78.7422C78.0633 78.6538 77.8906 78.6166 77.7197 78.6363C77.5488 78.6561 77.3891 78.7318 77.2656 78.8516C72.7505 83.1209 67.3013 86.2776 61.3515 88.0703C61.1826 88.1176 61.0344 88.2203 60.9309 88.3621C60.8275 88.5038 60.7748 88.6762 60.7812 88.8516V98.4375H39.2187V88.8359C39.2252 88.6606 39.1725 88.4882 39.069 88.3464C38.9656 88.2047 38.8174 88.1019 38.6484 88.0547C32.6987 86.2619 27.2495 83.1053 22.7344 78.8359C22.6108 78.7162 22.4512 78.6405 22.2803 78.6207C22.1093 78.6009 21.9367 78.6381 21.789 78.7266L13.4609 83.5312L2.67186 64.8438L11 60.0312C11.1502 59.9471 11.2683 59.8157 11.3362 59.6575C11.404 59.4992 11.4176 59.323 11.375 59.1563C9.8984 53.1202 9.8984 46.8173 11.375 40.7813C11.4176 40.6145 11.404 40.4383 11.3362 40.28C11.2683 40.1218 11.1502 39.9904 11 39.9063L2.67186 35.1562L13.4609 16.4844L21.789 21.2891C21.9367 21.3775 22.1093 21.4147 22.2803 21.3949C22.4512 21.3751 22.6108 21.2995 22.7344 21.1797C27.2495 16.9103 32.6987 13.7537 38.6484 11.9609C38.8174 11.9137 38.9656 11.8109 39.069 11.6692C39.1725 11.5275 39.2252 11.355 39.2187 11.1797V1.5625H60.7812V11.1641C60.7748 11.3394 60.8275 11.5118 60.9309 11.6536C61.0344 11.7953 61.1826 11.8981 61.3515 11.9453C67.2998 13.7335 72.7489 16.8847 77.2656 21.1484C77.3891 21.2682 77.5488 21.3439 77.7197 21.3637C77.8906 21.3834 78.0633 21.3462 78.2109 21.2578L86.539 16.4531L97.3281 35.1562L89 39.9687C87.8203 40.6484 89.7344 42.2188 89.7344 50.0313C89.7344 57.8438 87.8203 59.4062 89 60.0937L97.3281 64.8438L86.539 83.5469Z" fill="#47566A"/>
<path d="M50 21.875C44.4374 21.875 38.9997 23.5245 34.3746 26.6149C29.7495 29.7053 26.1446 34.0979 24.0159 39.237C21.8872 44.3762 21.3302 50.0312 22.4154 55.4869C23.5006 60.9426 26.1793 65.954 30.1126 69.8874C34.046 73.8207 39.0574 76.4994 44.5131 77.5846C49.9688 78.6698 55.6238 78.1128 60.763 75.9841C65.9022 73.8554 70.2947 70.2505 73.3851 65.6254C76.4755 61.0003 78.125 55.5626 78.125 50C78.1126 42.5446 75.1455 35.3981 69.8737 30.1263C64.6019 24.8545 57.4554 21.8874 50 21.875ZM50 76.5625C44.7464 76.5625 39.6109 75.0046 35.2427 72.0859C30.8745 69.1672 27.4699 65.0187 25.4595 60.165C23.449 55.3114 22.923 49.9705 23.9479 44.8179C24.9728 39.6653 27.5027 34.9323 31.2175 31.2175C34.9323 27.5026 39.6653 24.9728 44.8179 23.9479C49.9705 22.923 55.3114 23.449 60.165 25.4595C65.0187 27.4699 69.1672 30.8745 72.0859 35.2427C75.0047 39.6108 76.5625 44.7464 76.5625 50C76.5625 57.0448 73.764 63.8011 68.7825 68.7825C63.8011 73.764 57.0448 76.5625 50 76.5625Z" fill="#47566A"/>
<circle cx="50" cy="50" r="14.25" stroke="#47566A" stroke-width="1.5"/>
</g>
<defs>
<clipPath id="clip0">
<rect width="100" height="100" fill="white"/>
</clipPath>
</defs>
</svg>
