<svg width="354" height="354" viewBox="0 0 354 354" fill="none" xmlns="http://www.w3.org/2000/svg">
<g filter="url(#filter0_d)">
<circle cx="177" cy="175" r="174" fill="#F0F0F0"/>
</g>
<path d="M284.773 281.773C305.891 260.655 320.272 233.75 326.099 204.459C331.925 175.168 328.935 144.806 317.506 117.215C306.077 89.6232 286.723 66.0402 261.891 49.4481C237.059 32.856 207.865 24 178 24C148.135 24 118.941 32.856 94.1089 49.4481C69.2771 66.0402 49.923 89.6232 38.4942 117.215C27.0654 144.806 24.0751 175.167 29.9014 204.459C35.7278 233.75 50.1091 260.655 71.2269 281.773L178 175L284.773 281.773Z" fill="url(#paint0_linear)"/>
<defs>
<filter id="filter0_d" x="0" y="0" width="354" height="354" filterUnits="userSpaceOnUse" color-interpolation-filters="sRGB">
<feFlood flood-opacity="0" result="BackgroundImageFix"/>
<feColorMatrix in="SourceAlpha" type="matrix" values="0 0 0 0 0 0 0 0 0 0 0 0 0 0 0 0 0 0 127 0"/>
<feOffset dy="2"/>
<feGaussianBlur stdDeviation="1.5"/>
<feColorMatrix type="matrix" values="0 0 0 0 0 0 0 0 0 0 0 0 0 0 0 0 0 0 0.25 0"/>
<feBlend mode="normal" in2="BackgroundImageFix" result="effect1_dropShadow"/>
<feBlend mode="normal" in="SourceGraphic" in2="effect1_dropShadow" result="shape"/>
</filter>
<linearGradient id="paint0_linear" x1="20.5" y1="175" x2="329" y2="175" gradientUnits="userSpaceOnUse">
<stop stop-color="#C4C4C4"/>
<stop offset="0.786458" stop-color="#DAEBFF"/>
</linearGradient>
</defs>
</svg>
